<svg width="197" height="147" viewBox="0 0 197 147" fill="none" xmlns="http://www.w3.org/2000/svg">
<path d="M89.4549 29.7661C85.6626 29.7661 84.3984 31.3423 81.2532 31.9371C67.2575 34.5988 59.5373 42.4948 59.8984 42.3907C68.4463 40.0264 73.6684 39.9223 75.8806 39.9371C76.8588 39.9371 77.4457 40.0264 77.6113 40.071C78.454 40.294 79.0861 41.0524 79.0861 41.9595C79.0861 42.1676 79.0409 42.3758 78.9807 42.5543C78.9807 42.5691 78.9205 42.7327 78.8905 42.7773C78.2132 44.3535 72.5548 57.5135 71.5013 59.625C63.5554 75.3128 57.6561 91.2683 53.9089 107.12L53.7734 107.729H68.9279L69.0182 107.358C73.6684 88.9486 81.6896 69.7068 92.224 51.6844C96.513 44.3535 101.193 37.2308 106.159 30.5244L106.731 29.7363H89.47L89.4549 29.7661Z" fill="#231F20"/>
<path d="M162.052 115.597C158.079 120.712 153.504 125.173 148.824 128.474C142.127 132.593 136.318 133.56 132.465 131.18C128.357 128.638 127.544 123.091 127.59 118.883C127.62 115.641 127.921 112.519 129.215 107.968C132.405 107.686 143.421 106.184 152.676 99.2099C153.248 98.7787 153.85 98.3475 154.452 97.9311C155.34 97.3066 156.258 96.6523 157.146 95.9385C169.592 85.9757 176.364 73.0834 173.249 65.3064C172.872 64.3696 171.488 62.1242 170.058 60.9941C168.794 59.9978 167.214 58.8974 165.062 58.3918C155.205 56.0721 141.886 62.4959 131.141 74.7785C128.673 77.6038 126.356 80.6968 124.264 83.9979C123.586 85.0537 122.954 86.1392 122.352 87.195L121.871 88.0574L121.841 88.1169L121.796 88.1913C120.592 90.6448 119.012 93.8865 118.861 94.2285C117.868 96.5333 117.025 98.8977 116.333 101.232C115.896 101.188 115.49 101.069 115.144 100.875C114 100.251 112.646 98.0501 112.646 95.3883C112.646 90.9274 114.121 86.9422 114.798 84.7712C122.563 59.8045 136.589 39.6854 139.478 35.3582L140.306 34.124L138.831 33.8564C122.969 30.927 102.488 42.4512 86.0238 63.0164C79.7483 75.2544 74.6467 87.8493 70.9897 100.176C72.0432 97.6635 73.217 95.1653 74.4811 92.6969C76.1065 89.5147 77.9274 86.3325 79.8838 83.2396C88.2662 70.0053 99.0413 58.7636 110.253 51.6706C112.119 50.481 113.338 49.9903 114.075 49.7524C115.52 49.2765 115.4 50.02 115.234 50.3769C114.993 50.8825 114.662 51.5665 114.151 52.5777L113.428 54.0052C107.92 64.8008 96.4529 87.2842 101.163 100.816C103.481 107.493 111.954 108.652 112.315 108.697C113.052 108.786 113.835 108.875 114.647 108.935C113.233 118.66 114.978 126.957 119.614 132.37C120.637 133.574 121.811 134.63 123.105 135.537C124.775 136.697 127.665 138.154 129.636 138.615C131.051 138.943 133.383 139.225 134.708 139.225C143.873 139.225 148.433 136.608 150.871 135.195L151.126 135.047C161.149 129.307 170.329 117.292 170.72 116.786L171.909 115.21H162.398L162.097 115.597H162.052ZM136.258 91.8195C136.709 91.076 137.101 90.4069 137.462 89.7824C137.522 89.6783 137.582 89.5742 137.627 89.4701L137.718 89.2917C138.004 88.8158 138.289 88.34 138.59 87.879C141.149 83.8492 143.978 80.102 147.018 76.7414L147.394 76.325C149.516 73.9607 155.16 67.6707 161.39 64.89C162.067 64.5926 162.744 64.4439 163.391 64.4439C164.204 64.4439 164.972 64.6818 165.604 65.1428C167.936 66.8529 167.395 72.1466 164.309 77.7079C163.602 78.9719 162.774 80.2507 161.856 81.4849C160.592 83.1652 159.223 84.6671 157.763 85.9756L157.613 86.1095V86.1392C157.056 86.7043 156.469 87.2842 155.897 87.8344C148.041 95.3289 139.042 100.147 131.999 100.727C133.233 97.7229 134.708 94.6597 136.273 91.8195H136.258Z" fill="#939598"/>
<path d="M70.8997 60.8142C66.099 68.8589 60.3653 75.6842 54.6767 80.0709C49.1537 84.3385 44.2326 85.7958 41.1927 84.0709C38.1528 82.3311 36.9639 77.4091 37.9421 70.5392C38.9805 63.2678 42.2462 54.6581 47.1371 46.2863C55.6248 31.7583 67.1525 21.5575 74.3309 21.5575C75.4295 21.5575 76.4228 21.7954 77.2806 22.2861C79.7938 23.7136 80.9525 27.2527 80.8171 32.0408C80.9525 32.0111 81.088 31.9813 81.2234 31.9516C83.7818 31.4609 85.0911 30.3308 87.5441 29.9293C86.8819 22.8065 84.0677 17.5277 79.3573 14.6132C73.5183 10.9998 65.5573 11.5797 56.9341 16.2489C48.5066 20.8288 40.3951 28.7992 34.1046 38.7174C27.814 48.6357 24.0818 59.3272 23.6003 68.8143C23.1036 78.5095 26.0533 85.8404 31.8924 89.4687C39.3868 94.1081 50.3125 91.7438 61.0726 83.372C63.8718 75.8329 67.1374 68.3087 70.8696 60.8291L70.8997 60.8142Z" fill="#939598"/>
<path d="M31.6212 108.369C35.9681 108.369 39.4919 104.888 39.4919 100.592C39.4919 96.2973 35.9681 92.8154 31.6212 92.8154C27.2743 92.8154 23.7505 96.2973 23.7505 100.592C23.7505 104.888 27.2743 108.369 31.6212 108.369Z" fill="#231F20"/>
</svg>
